<mxfile host="drawio-plugin" modified="2022-04-03T08:19:17.882Z" agent="5.0 (Windows NT 6.2; Win64; x64) AppleWebKit/537.36 (KHTML, like Gecko) Chrome/89.0.4389.114 Safari/537.36" version="15.5.4" etag="Fo85oOnDSPjrs5WwyfqE" type="embed"><diagram id="I8nlh1ZoyLKjNFEjsQBe" name="Page-1"><mxGraphModel dx="892" dy="509" grid="1" gridSize="10" guides="1" tooltips="1" connect="1" arrows="1" fold="1" page="1" pageScale="1" pageWidth="850" pageHeight="1100" math="0" shadow="0"><root><mxCell id="0"/><mxCell id="1" parent="0"/><mxCell id="2" value="&lt;pre style=&quot;background-color: #ffffff ; color: #080808 ; font-family: &amp;#34;fira code&amp;#34; , monospace ; font-size: 10.5pt&quot;&gt;&lt;span style=&quot;color: #0033b3&quot;&gt;const &lt;/span&gt;&lt;span style=&quot;color: #830091&quot;&gt;obj &lt;/span&gt;= {&lt;br&gt;  &lt;span style=&quot;color: #871094&quot;&gt;name&lt;/span&gt;: &lt;span style=&quot;color: #067d17&quot;&gt;'jz'&lt;/span&gt;,&lt;br&gt;  &lt;span style=&quot;color: #871094&quot;&gt;age&lt;/span&gt;: &lt;span style=&quot;color: #1750eb&quot;&gt;18&lt;br&gt;&lt;/span&gt;}&lt;br&gt;&lt;br&gt;&lt;span style=&quot;font-style: italic&quot;&gt;setTimeout&lt;/span&gt;(() =&amp;gt; {&lt;br&gt;  &lt;span style=&quot;color: #830091&quot;&gt;obj&lt;/span&gt;.&lt;span style=&quot;color: #871094&quot;&gt;name &lt;/span&gt;= &lt;span style=&quot;color: #067d17&quot;&gt;'zs'&lt;br&gt;&lt;/span&gt;}, &lt;span style=&quot;color: #1750eb&quot;&gt;1000&lt;/span&gt;)&lt;br&gt;&lt;br&gt;&lt;span style=&quot;color: #248f8f&quot;&gt;module&lt;/span&gt;.&lt;span style=&quot;color: #871094&quot;&gt;exports &lt;/span&gt;= &lt;span style=&quot;color: #830091&quot;&gt;obj&lt;/span&gt;&lt;/pre&gt;" style="rounded=0;whiteSpace=wrap;html=1;align=left;" vertex="1" parent="1"><mxGeometry x="60" y="80" width="240" height="250" as="geometry"/></mxCell><mxCell id="3" value="&lt;pre style=&quot;background-color: #ffffff ; color: #080808 ; font-family: &amp;#34;fira code&amp;#34; , monospace ; font-size: 10.5pt&quot;&gt;&lt;span style=&quot;color: #0033b3&quot;&gt;const &lt;/span&gt;&lt;span style=&quot;color: #830091&quot;&gt;jz &lt;/span&gt;= &lt;span style=&quot;color: #248f8f&quot;&gt;require&lt;/span&gt;(&lt;span style=&quot;color: #067d17&quot;&gt;'./jz'&lt;/span&gt;)&lt;br&gt;&lt;span style=&quot;color: #830091&quot;&gt;console&lt;/span&gt;.&lt;span style=&quot;color: #7a7a43&quot;&gt;log&lt;/span&gt;(&lt;span style=&quot;color: #830091&quot;&gt;jz&lt;/span&gt;.&lt;span style=&quot;color: #871094&quot;&gt;name&lt;/span&gt;)&lt;br&gt;&lt;span style=&quot;font-style: italic&quot;&gt;setTimeout&lt;/span&gt;(() =&amp;gt; &lt;span style=&quot;color: #830091&quot;&gt;console&lt;/span&gt;.&lt;span style=&quot;color: #7a7a43&quot;&gt;log&lt;/span&gt;(&lt;span style=&quot;color: #830091&quot;&gt;jz&lt;/span&gt;.&lt;span style=&quot;color: #871094&quot;&gt;name&lt;/span&gt;), &lt;span style=&quot;color: #1750eb&quot;&gt;2000&lt;/span&gt;)&lt;/pre&gt;" style="rounded=0;whiteSpace=wrap;html=1;align=left;" vertex="1" parent="1"><mxGeometry x="470" y="80" width="400" height="100" as="geometry"/></mxCell><mxCell id="4" value="" style="rounded=0;whiteSpace=wrap;html=1;align=left;" vertex="1" parent="1"><mxGeometry x="410" y="310" width="270" height="170" as="geometry"/></mxCell><mxCell id="5" value="jz.js&lt;br&gt;" style="text;html=1;strokeColor=none;fillColor=none;align=center;verticalAlign=middle;whiteSpace=wrap;rounded=0;" vertex="1" parent="1"><mxGeometry x="130" y="30" width="60" height="30" as="geometry"/></mxCell><mxCell id="6" value="main.js" style="text;html=1;strokeColor=none;fillColor=none;align=center;verticalAlign=middle;whiteSpace=wrap;rounded=0;" vertex="1" parent="1"><mxGeometry x="610" y="30" width="60" height="30" as="geometry"/></mxCell><mxCell id="8" value="堆" style="text;html=1;strokeColor=none;fillColor=none;align=center;verticalAlign=middle;whiteSpace=wrap;rounded=0;" vertex="1" parent="1"><mxGeometry x="450" y="270" width="60" height="30" as="geometry"/></mxCell><mxCell id="10" style="edgeStyle=orthogonalEdgeStyle;rounded=0;orthogonalLoop=1;jettySize=auto;html=1;exitX=0;exitY=0;exitDx=0;exitDy=0;entryX=0.391;entryY=1.013;entryDx=0;entryDy=0;entryPerimeter=0;" edge="1" parent="1" source="9" target="2"><mxGeometry relative="1" as="geometry"/></mxCell><mxCell id="11" style="edgeStyle=orthogonalEdgeStyle;rounded=0;orthogonalLoop=1;jettySize=auto;html=1;exitX=0.5;exitY=0;exitDx=0;exitDy=0;entryX=0.177;entryY=1.028;entryDx=0;entryDy=0;entryPerimeter=0;" edge="1" parent="1" source="9" target="3"><mxGeometry relative="1" as="geometry"/></mxCell><mxCell id="9" value="obj: 0x0aa" style="ellipse;whiteSpace=wrap;html=1;align=center;" vertex="1" parent="1"><mxGeometry x="480" y="360" width="120" height="80" as="geometry"/></mxCell><mxCell id="12" value="&lt;h1&gt;内部原理&lt;/h1&gt;&lt;div&gt;&lt;span style=&quot;font-size: 16px&quot;&gt;function require('./jz'&lt;/span&gt;&lt;span style=&quot;font-size: 16px&quot;&gt;) { ...... }&lt;/span&gt;&lt;/div&gt;&lt;div style=&quot;text-align: left&quot;&gt;&lt;span style=&quot;font-size: 18px&quot;&gt;内部去加载这个文件,&lt;/span&gt;&lt;span style=&quot;font-size: 18px&quot;&gt;读取module.exports 对象，也是就obj对象，然后返回这个对象，都是同一个对象&lt;/span&gt;&lt;/div&gt;&lt;div&gt;&lt;span style=&quot;font-size: 16px&quot;&gt;&lt;br&gt;&lt;/span&gt;&lt;/div&gt;&lt;div&gt;&lt;span style=&quot;font-size: 16px&quot;&gt;&lt;br&gt;&lt;/span&gt;&lt;/div&gt;&lt;div&gt;&lt;span style=&quot;font-size: 16px&quot;&gt;&lt;br&gt;&lt;/span&gt;&lt;/div&gt;&lt;div&gt;&lt;span style=&quot;font-size: 16px&quot;&gt;}&lt;/span&gt;&lt;/div&gt;" style="text;html=1;strokeColor=none;fillColor=none;spacing=5;spacingTop=-20;whiteSpace=wrap;overflow=hidden;rounded=0;align=center;" vertex="1" parent="1"><mxGeometry x="60" y="390" width="330" height="180" as="geometry"/></mxCell></root></mxGraphModel></diagram></mxfile>